<svg
  xmlns="http://www.w3.org/2000/svg"
  viewBox="0 0 128 128"
  role="img"
  aria-label="Saluna"
>
  <defs>
    <linearGradient
      id="bg"
      x1="18"
      x2="110"
      y1="12"
      y2="118"
      gradientUnits="userSpaceOnUse"
    >
      <stop stop-color="#FDE2E9" />
      <stop offset=".55" stop-color="#F7B7C6" />
      <stop offset="1" stop-color="#C3425B" />
    </linearGradient>
    <linearGradient
      id="petal"
      x1="44"
      x2="84"
      y1="30"
      y2="98"
      gradientUnits="userSpaceOnUse"
    >
      <stop stop-color="#FFFFFF" />
      <stop offset="1" stop-color="#FFF5F8" />
    </linearGradient>
  </defs>
  <rect width="128" height="128" rx="32" fill="url(#bg)" />
  <path
    fill="url(#petal)"
    d="M64 20c16 14 25 30 25 47 0 25-17 41-25 41S39 92 39 67c0-17 9-33 25-47Z"
  />
  <path
    fill="#9B2F4A"
    d="M64 35c7 8 12 18 12 31 0 14-7 25-12 31-5-6-12-17-12-31 0-13 5-23 12-31Z"
    opacity=".92"
  />
  <circle cx="64" cy="64" r="8" fill="#FFFFFF" opacity=".9" />
</svg>
